<svg data-v-423bf9ae="" xmlns="http://www.w3.org/2000/svg" viewBox="0 0 256 90" class="iconLeft"><!----><!----><!----><g data-v-423bf9ae="" id="f295315f-51e3-438c-918b-edf888d9928b" fill="#000000" transform="matrix(4.559270569581267,0,0,4.559270569581267,105.71428291762906,-3.191489377691269)"><path d="M4.28 14.52C6.13 14.52 7.34 13.69 7.34 12.26C7.34 10.70 5.89 10.42 4.86 10.26L3.72 10.09C3.08 10.00 2.45 9.80 2.45 9.04C2.45 8.30 3.08 7.90 4.21 7.90C5.49 7.90 6.13 8.40 6.47 8.81L7.20 8.12C6.51 7.39 5.56 6.96 4.26 6.96C2.58 6.96 1.34 7.67 1.34 9.11C1.34 10.68 2.80 10.96 3.82 11.12L4.96 11.28C5.61 11.38 6.23 11.58 6.23 12.33C6.23 13.19 5.43 13.58 4.31 13.58C3.16 13.58 2.38 13.17 1.69 12.45L0.94 13.10C1.69 13.96 2.77 14.52 4.28 14.52ZM9.77 14.35L10.89 14.35L10.89 9.34C10.89 8.39 11.79 7.95 12.68 7.95C13.79 7.95 14.39 8.60 14.39 9.91L14.39 14.35L15.51 14.35L15.51 9.72C15.51 7.97 14.52 6.96 13.01 6.96C11.82 6.96 11.26 7.59 10.95 8.30L10.89 8.30L10.89 3.99L9.77 3.99ZM21 14.52C23.03 14.52 24.28 13.03 24.28 10.74C24.28 8.44 23.03 6.96 21 6.96C18.97 6.96 17.72 8.44 17.72 10.74C17.72 13.03 18.97 14.52 21 14.52ZM21 13.55C19.75 13.55 18.91 12.81 18.91 11.26L18.91 10.22C18.91 8.67 19.75 7.92 21 7.92C22.25 7.92 23.09 8.67 23.09 10.22L23.09 11.26C23.09 12.81 22.25 13.55 21 13.55ZM26.53 17.15L27.65 17.15L27.65 13.17L27.71 13.17C28.17 14.06 28.92 14.52 29.93 14.52C31.70 14.52 32.76 13.10 32.76 10.74C32.76 8.37 31.70 6.96 29.93 6.96C28.92 6.96 28.17 7.42 27.71 8.30L27.65 8.30L27.65 7.13L26.53 7.13ZM29.50 13.52C28.50 13.52 27.65 13.01 27.65 12.04L27.65 9.44C27.65 8.47 28.50 7.95 29.50 7.95C30.80 7.95 31.56 8.82 31.56 10.12L31.56 11.35C31.56 12.66 30.80 13.52 29.50 13.52Z"></path></g><defs data-v-423bf9ae=""><linearGradient data-v-423bf9ae="" gradientTransform="rotate(25)" id="11cca46f-6f6e-44ea-88b0-ff03575c351c" x1="0%" y1="0%" x2="100%" y2="0%"><stop data-v-423bf9ae="" offset="0%" style="stop-color: rgb(234, 31, 89); stop-opacity: 1;"></stop><stop data-v-423bf9ae="" offset="100%" style="stop-color: rgb(250, 145, 105); stop-opacity: 1;"></stop></linearGradient></defs><g data-v-423bf9ae="" id="7c0bdfc3-7441-4d70-b60b-62f939c25b8c" transform="matrix(2.8125,0,0,2.8125,0,0)" stroke="none" fill="url(#11cca46f-6f6e-44ea-88b0-ff03575c351c)"><path d="M0 16.024L15.976 32 32 15.976 16.024 0 0 16.024zm15.989 7.323l-7.336-7.336 14.694-.022-7.358 7.358z"></path></g><!----></svg>